<svg width="34" height="40" viewBox="0 0 34 40" fill="none" xmlns="http://www.w3.org/2000/svg">
<ellipse cx="20.7692" cy="3.46154" rx="3.07692" ry="3.46154" fill="black"/>
<path d="M32.2465 17.1366C31.304 16.977 27.3703 16.1792 27.1654 16.0994C27.0424 16.0595 27.0424 16.0595 27.0015 15.9797C26.9195 15.86 23.3546 9.75654 23.0267 9.39751C22.4531 8.59967 21.6745 7.9614 20.5272 7.80183C19.2979 7.4428 18.0276 8.08107 18.0276 8.08107C18.0276 8.08107 11.8401 11.432 11.4713 11.6714C11.0616 11.8708 10.7338 12.5889 10.7338 12.5889L7.08683 17.8945C6.75902 18.2934 6.63609 18.812 6.79999 19.3705C6.9639 19.9689 7.4966 20.4077 8.15222 20.5274C9.05371 20.6869 9.83227 20.0487 10.2011 19.2907L13.6841 14.3441L15.4051 13.5862C15.2822 13.9452 13.889 21.3252 13.889 21.3252L12.4957 30.0616L6.75902 36.3645C6.30828 36.8033 6.06242 37.4416 6.18535 38.1198C6.30828 38.9575 6.9639 39.5559 7.82441 39.6756C8.64394 39.7952 9.38152 39.4362 9.87324 38.8777C10.8567 37.7208 16.1427 32.0163 16.5934 31.4578C17.1261 30.8195 17.249 30.5004 17.331 30.1015C17.4129 29.7025 18.1915 24.357 18.1915 24.357L23.4775 29.3036L24.4609 38.2394C24.5839 39.2367 25.5673 40.0745 26.6327 39.9947C27.6571 39.9149 28.4357 39.1968 28.5176 38.1995V37.9602C28.4766 36.6039 27.5342 29.8222 27.5342 28.3063C27.5751 26.591 26.9195 26.2319 26.7966 26.0724C26.6327 25.8729 21.6745 20.9662 21.6745 20.9662L22.617 15.2616C22.617 15.2616 24.297 17.8945 24.4609 18.1738C24.6248 18.453 25.0756 18.9716 25.5263 19.0913C25.9771 19.1711 31.9187 20.3678 31.9187 20.3678C31.9187 20.3678 32.0826 20.3678 32.1645 20.3678C33.107 20.3678 33.8855 19.6498 33.8446 18.7322C33.8446 17.8945 33.148 17.1765 32.2465 17.1366Z" fill="black"/>
<path d="M6.14849 28.9409L0.761184 25.3137C-0.00268722 24.7898 -0.24391 23.7016 0.278739 22.9359L2.24872 19.9938C2.77137 19.228 3.85687 18.9862 4.62074 19.5101L10.008 23.1374C10.7719 23.6613 11.0131 24.7495 10.4905 25.5152L8.52051 28.4573C7.99786 29.2634 6.91236 29.4649 6.14849 28.9409Z" fill="black"/>
</svg>
