<svg width="41" height="40" viewBox="0 0 41 40" fill="none" xmlns="http://www.w3.org/2000/svg">
<path fill-rule="evenodd" clip-rule="evenodd" d="M19.3915 22.8206L23.2593 19.0257C23.9911 18.3077 23.9911 17.1795 23.2593 16.4616L7.3698 0.871836C6.63805 0.153887 5.48814 0.153887 4.75639 0.871836L0.888538 4.66671C0.156783 5.38466 0.156783 6.51286 0.888538 7.23081L16.8304 22.8718C17.5098 23.5385 18.712 23.5385 19.3915 22.8206ZM6.69031 2.82055L20.7505 16.6154L19.6006 17.7436L5.54041 3.94876L6.69031 2.82055ZM18.0848 19.2308L4.02463 5.43594L2.87473 6.56414L16.9349 20.359L18.0848 19.2308Z" fill="black"/>
<path d="M35.8038 32.6667L35.3334 33.077L22.8413 20.8206L21.2209 22.4103L33.7131 34.6667L33.2949 35.1282L37.9468 39.6411L40.4034 37.2308L35.8038 32.6667Z" fill="black"/>
<path d="M20.28 23.6924C19.6005 24.359 18.712 24.6667 17.7712 24.5641C17.0394 24.4616 16.3599 24.1026 15.8372 23.5898L14.1124 21.8462C14.0601 21.7949 13.9556 21.7949 13.9033 21.8462L12.7534 22.9744L11.499 24.2052C11.4467 24.2565 11.3944 24.2565 11.3422 24.2565C8.62421 23.2821 5.43584 23.8975 3.24058 26.0513C1.25439 28 0.574898 30.7693 1.20212 33.2821C1.25439 33.3847 1.35892 33.4359 1.46346 33.3334L4.91316 29.9488C5.69719 29.1795 6.95162 29.1795 7.68338 29.9488L10.2445 32.4616C11.0285 33.2308 11.0285 34.4616 10.2445 35.1795L6.79482 38.5641C6.69028 38.6667 6.74255 38.7693 6.84709 38.8206C9.40823 39.4359 12.2307 38.7693 14.2169 36.8206C16.4122 34.6667 16.9871 31.5385 16.0463 28.8718C16.0463 28.8206 16.0463 28.7693 16.0986 28.718L17.3007 27.5385L21.0118 23.8975L20.5414 23.4359L20.28 23.6924Z" fill="black"/>
<path d="M24.0434 15.5384C25.2978 16.7692 25.2978 18.7692 24.0434 19.9487L23.8865 20.1025L24.357 20.5641L28.068 16.923L29.2702 15.7435C29.3224 15.6923 29.3747 15.6923 29.427 15.6923C32.1449 16.6666 35.3333 16.0512 37.5286 13.8974C39.5147 11.9487 40.1942 9.17944 39.567 6.66662C39.5147 6.56405 39.4102 6.51277 39.3057 6.61533L35.856 9.99995C35.0719 10.7692 33.8175 10.7692 33.0858 9.99995L30.5246 7.48713C29.7406 6.7179 29.7406 5.48713 30.5246 4.76918L33.9743 1.38456C34.0789 1.282 34.0266 1.17944 33.922 1.12815C31.3609 0.51277 28.5384 1.17944 26.5522 3.12815C24.357 5.282 23.782 8.41021 24.7228 11.0769C24.7228 11.1282 24.7228 11.1794 24.6706 11.2307L23.4684 12.4102L22.3185 13.5384C22.2662 13.5897 22.2662 13.6923 22.3185 13.7435L24.0434 15.5384Z" fill="black"/>
</svg>
