<svg width="39" height="40" viewBox="0 0 39 40" fill="none" xmlns="http://www.w3.org/2000/svg">
<path d="M16.984 1.96004C13.4909 3.52004 10.8409 6.20004 9.0742 9.92004C8.79314 10.48 8.75299 11.24 8.67268 12C8.59238 12.76 8.51208 13.56 8.23101 14.04C7.78935 14.8 6.02268 15.68 4.61738 16.4C2.85071 17.28 1.72647 17.88 1.44541 18.56C0.802984 20.2 2.12798 21.04 2.85071 21.52C3.01132 21.64 3.25223 21.76 3.33253 21.88C3.21208 22.16 2.97117 22.4 2.64995 22.68C2.12798 23.12 1.44541 23.68 1.60601 24.76C1.64617 24.88 1.64617 25 1.72647 25.12C1.76662 25.2 1.72647 25.32 1.64617 25.4C0.883287 26 0.843136 27.12 1.56586 28.44C1.60601 28.48 1.60601 28.56 1.60601 28.6C1.52571 28.96 1.2848 29.28 1.08404 29.6C0.642378 30.28 0.0802571 31.08 0.401469 32.48C0.802984 34.16 3.65374 35.32 9.11435 35.96C9.19465 35.96 9.27495 36.04 9.27495 36.08C9.31511 36.12 9.31511 36.2 9.31511 36.28C9.11435 37.24 8.67268 38.72 8.55223 39.04C8.47192 39.28 8.59238 39.56 8.87344 39.64C8.91359 39.64 8.99389 39.68 9.03405 39.68C9.2348 39.68 9.43556 39.56 9.47571 39.36C9.59617 39.04 10.0378 37.48 10.2386 36.48C10.3189 36.16 10.2386 35.8 10.0378 35.52C9.83708 35.24 9.51586 35.08 9.19465 35.04C2.48935 34.24 1.44541 32.84 1.32495 32.28C1.08405 31.28 1.44541 30.76 1.84692 30.12C2.12798 29.72 2.36889 29.32 2.5295 28.8C2.6098 28.52 2.56965 28.24 2.40904 27.96C2.24844 27.64 1.72647 26.52 2.24844 26.12C2.69011 25.76 2.85071 25.12 2.56965 24.64C2.56965 24.64 2.56965 24.6 2.56965 24.56C2.48935 24.04 2.73026 23.8 3.25223 23.36C3.65374 23 4.13556 22.6 4.29617 21.96C4.41662 21.36 3.89465 21.04 3.37268 20.68C2.48935 20.12 2.00753 19.72 2.32874 18.92C2.48935 18.56 3.9348 17.8 5.01889 17.24C6.70526 16.4 8.47192 15.48 9.03405 14.52C9.39541 13.88 9.51586 12.96 9.59617 12.12C9.67647 11.48 9.71662 10.8 9.91738 10.36C11.5636 6.88004 14.0931 4.32004 17.3454 2.84004C17.5863 2.72004 17.7068 2.44004 17.5863 2.20004C17.5462 1.96004 17.2651 1.84004 16.984 1.96004Z" fill="black"/>
<path d="M36.819 21.24C36.5781 21.2 36.297 21.36 36.2568 21.6C35.9758 23 35.2129 25.08 33.4462 26.96C32.3621 28.08 31.0773 28.96 29.6318 29.56C29.2705 29.72 29.0296 30 28.9091 30.36L26.5803 39.04C26.5 39.32 26.6205 39.6 26.9015 39.68C26.9417 39.68 26.9818 39.68 27.022 39.68C27.2228 39.68 27.4235 39.52 27.5038 39.32L29.8326 30.64C29.8728 30.56 29.9129 30.52 29.9932 30.48C31.5993 29.84 32.9644 28.88 34.169 27.64C36.0962 25.6 36.8993 23.36 37.2205 21.8C37.2606 21.56 37.0599 21.32 36.819 21.24Z" fill="black"/>
<path fill-rule="evenodd" clip-rule="evenodd" d="M38.1841 6.23995C37.9833 7.51995 36.9796 9.15995 35.3333 10.8399C37.0197 12.5199 38.0235 14.1599 38.1841 15.4399C38.2644 16.1599 38.1038 16.7999 37.6621 17.2799C37.1402 17.8399 36.2568 18.1599 35.0924 18.1599C34.1689 18.1599 33.0849 17.9599 31.8803 17.5999C30.9568 19.9599 29.5515 21.3199 28.0258 21.3199C26.5 21.3199 25.0947 19.9599 24.1712 17.5999C22.9667 17.9599 21.8826 18.1599 20.9591 18.1599C19.7947 18.1599 18.9114 17.8799 18.3894 17.2799C17.9477 16.7999 17.747 16.1999 17.8674 15.4399C18.028 14.1599 19.072 12.5199 20.7182 10.8399C19.0318 9.15995 18.028 7.51995 17.8674 6.23995C17.7871 5.47995 17.9477 4.83995 18.3894 4.35995C18.9114 3.79995 19.7947 3.47995 20.9591 3.47995C21.8826 3.47995 22.9667 3.67995 24.1712 4.03995C25.0947 1.67995 26.5 0.319946 28.0258 0.319946C29.5515 0.319946 30.9568 1.67995 31.8803 4.03995C33.0849 3.67995 34.1689 3.47995 35.0924 3.47995C36.2568 3.47995 37.1402 3.75995 37.6621 4.35995C38.1038 4.87995 38.3046 5.47995 38.1841 6.23995ZM19.3129 15.3999C19.2727 15.8399 19.353 16.1599 19.5538 16.3999C20.1159 17.0399 21.8023 17.0799 24.0106 16.4399C23.6894 15.3599 23.4485 14.1599 23.328 12.8799C22.7659 12.4399 22.2439 11.9999 21.7621 11.5599C20.3167 12.9999 19.4735 14.3599 19.3129 15.3999ZM23.2076 11.4399C22.9667 11.2399 22.7258 11.0399 22.525 10.8399C22.6455 10.7399 22.7559 10.6399 22.8663 10.54L22.8663 10.5399C22.9767 10.4399 23.0871 10.3399 23.2076 10.2399V10.8399C23.1808 10.9733 23.1897 11.1066 23.1987 11.2399C23.2031 11.3066 23.2076 11.3733 23.2076 11.4399ZM21.722 10.1199C22.2038 9.67995 22.7258 9.23995 23.2879 8.79995C23.4083 7.51995 23.6091 6.31995 23.9303 5.23995C22.8864 4.91995 21.9629 4.75995 21.2 4.75995C20.397 4.75995 19.7947 4.95995 19.5136 5.27995C19.3129 5.51995 19.2326 5.83995 19.2727 6.27995C19.4333 7.27995 20.2765 8.67995 21.722 10.1199ZM31.5993 7.91995C31.4989 7.83995 31.3985 7.76995 31.2981 7.69995C31.1977 7.62995 31.0974 7.55995 30.997 7.47995L30.997 7.47994C30.4348 7.11994 29.8727 6.75994 29.1902 6.39995C29.8326 6.07995 30.475 5.83995 31.1174 5.59995C31.3182 6.31995 31.4788 7.07995 31.5993 7.91995ZM30.7159 4.59995C29.9932 2.75995 29.0296 1.71995 28.0258 1.71995C27.022 1.71995 26.0583 2.75995 25.3356 4.59995C26.2189 4.91995 27.1023 5.27995 28.0258 5.75995C28.9091 5.31995 29.8326 4.91995 30.7159 4.59995ZM24.9743 5.59995C25.6167 5.83995 26.2591 6.07995 26.9015 6.39995C26.2189 6.75995 25.6568 7.11995 25.0947 7.47995C24.9943 7.55995 24.894 7.62995 24.7936 7.69994C24.6932 7.76995 24.5928 7.83995 24.4924 7.91995C24.6129 7.07995 24.7735 6.31995 24.9743 5.59995ZM25.0947 14.1599C24.8939 14.0399 24.6932 13.9199 24.4924 13.7599C24.6129 14.5599 24.7735 15.3599 24.9743 16.0799C25.6167 15.8399 26.2591 15.5999 26.9015 15.2799C26.2189 14.8799 25.6568 14.5199 25.0947 14.1599ZM28.0258 19.9599C27.022 19.9599 26.0583 18.9199 25.3356 17.0799C26.2189 16.7599 27.1424 16.3599 28.0258 15.9199C28.9493 16.3599 29.8326 16.7599 30.7159 17.0799C30.0333 18.9199 29.0296 19.9599 28.0258 19.9599ZM29.15 15.2799C29.8326 15.5999 30.4349 15.8399 31.0773 16.0799C31.3182 15.3599 31.4788 14.5599 31.5591 13.7599C31.4587 13.8399 31.3583 13.9099 31.258 13.9799C31.1576 14.0499 31.0572 14.1199 30.9568 14.1999C30.3947 14.5599 29.8326 14.9199 29.15 15.2799ZM31.7599 12.3599C31.3182 12.7199 30.8364 13.0399 30.3947 13.3199L30.3947 13.32L30.3946 13.32L30.3946 13.32L30.3946 13.32C29.6317 13.8 28.8689 14.28 28.0659 14.7199C27.2629 14.2799 26.4599 13.8399 25.7371 13.3199C25.5163 13.1599 25.2854 12.9999 25.0546 12.8399C24.8237 12.6799 24.5928 12.5199 24.372 12.3599C24.3318 11.8399 24.3318 11.3199 24.3318 10.8399C24.3318 10.3599 24.3318 9.87995 24.372 9.31995C24.8538 8.95995 25.2955 8.63995 25.7371 8.35995C26.4599 7.87995 27.2629 7.39995 28.0659 6.95995C28.8689 7.39995 29.6318 7.83995 30.3947 8.35995C30.6155 8.51991 30.8463 8.67987 31.0771 8.83983L31.0771 8.83985L31.0772 8.83987L31.0773 8.83993L31.0773 8.83998C31.3082 8.99997 31.539 9.15996 31.7599 9.31995C31.8 9.83995 31.8 10.3599 31.8 10.8399C31.8 11.3199 31.8 11.7999 31.7599 12.3599ZM36.7788 6.27995C36.8189 5.83995 36.7386 5.51995 36.5379 5.27995C35.9356 4.63995 34.2894 4.59995 32.0811 5.23995C32.4023 6.31995 32.6432 7.51995 32.7636 8.79995C33.3258 9.23995 33.8477 9.67995 34.3296 10.1199C35.775 8.63995 36.6583 7.27995 36.7788 6.27995ZM32.8841 10.1999L32.8841 10.2C33.125 10.4 33.3659 10.6 33.5667 10.7999C33.4462 10.8999 33.3358 10.9999 33.2254 11.0999L33.2254 11.1C33.115 11.1999 33.0046 11.2999 32.8841 11.3999V10.7999V10.1999ZM32.1212 16.4399C34.2894 17.0799 35.9356 17.0399 36.5379 16.3999C36.7386 16.1599 36.819 15.8399 36.819 15.3999C36.6583 14.3599 35.8152 12.9999 34.3697 11.5599C33.8879 11.9999 33.3659 12.4399 32.8038 12.8799C32.6833 14.1599 32.4424 15.3599 32.1212 16.4399Z" fill="black"/>
<ellipse cx="28.0257" cy="10.84" rx="2.20833" ry="2.2" fill="black"/>
</svg>
