<svg width="57" height="40" viewBox="0 0 57 40" fill="none" xmlns="http://www.w3.org/2000/svg">
<circle cx="7.69228" cy="3.07692" r="3.07692" fill="black"/>
<path d="M9.82585 7.64317C8.21176 6.68408 6.36195 6.68315 4.75207 7.63992C1.46777 9.59296 -0.294109 14.9748 0.0403075 22.0361C0.0721121 22.7103 0.64787 23.2308 1.32652 23.1996C2.00518 23.169 2.52949 22.596 2.49768 21.9218C2.34287 18.6384 2.66606 15.7276 3.43311 13.5051C3.52572 13.2356 3.62535 12.9767 3.73152 12.7291V23.1118H3.74227V38.5089C3.74227 39.3267 4.41017 39.9903 5.23335 39.9903C6.05747 39.9903 6.7249 39.3262 6.7249 38.5089V23.1118H7.82169V38.5186C7.82169 39.3365 8.48959 40 9.31323 40C10.1364 40 10.8043 39.3365 10.8043 38.5186V23.1118H10.8141V12.6245C10.9409 12.9098 11.0587 13.2105 11.1691 13.5251C11.9437 15.7504 12.2711 18.6546 12.1181 21.9241C12.0863 22.5979 12.6106 23.1713 13.2893 23.201C13.3094 23.2019 13.3281 23.2029 13.3477 23.2029C14.0011 23.2029 14.5451 22.6922 14.576 22.0379C14.9076 14.9897 13.1317 9.60875 9.82585 7.64317Z" fill="black"/>
<path fill-rule="evenodd" clip-rule="evenodd" d="M31.8889 0.60207C42.6815 -2.07685 53.6191 4.4351 56.3169 15.1489C59.0152 25.8614 52.4528 36.7197 41.6602 39.3981C30.8658 42.0766 19.9286 35.5642 17.2313 24.8517C16.164 20.6143 16.5495 16.3566 18.0707 12.5882L12.3077 5.30529L21.967 6.44879C24.5396 3.67385 27.9271 1.58629 31.8889 0.60207ZM41.1993 37.5673C50.9567 35.1446 56.9141 25.294 54.4734 15.6069C52.0347 5.91928 42.1095 0.0102428 32.3503 2.43433C28.8865 3.29391 25.7795 5.12479 23.3658 7.72661C22.9533 8.17302 22.3492 8.39415 21.7433 8.3226L16.6346 7.71831L19.5659 11.423C19.7333 11.6349 19.8514 11.8763 19.9147 12.1302C20.0095 12.5092 19.9863 12.9141 19.8361 13.2885C18.4032 16.8418 18.1409 20.6813 19.0762 24.3952C21.5154 34.0795 31.4397 39.99 41.1993 37.5673Z" fill="black"/>
<path fill-rule="evenodd" clip-rule="evenodd" d="M27.6923 28.4615V11.5385H44.6153V28.4615H27.6923ZM40.1388 16.0511H44.033V12.1208H40.1388V16.0511ZM40.1388 19.9995V16.0511H36.1716V12.1208H32.2404V16.0511H36.1716V19.9995H40.1388ZM40.1388 23.9484H44.033V19.9995H40.1388V23.9484ZM36.1716 23.9484V27.8797H40.1388V23.9484H36.1716ZM32.2404 23.9484H36.1716V20.054H32.2404V16.0876H28.2741V20.054H32.2404V23.9484ZM32.2404 23.9484H28.2741V27.8797H32.2404V23.9484Z" fill="black"/>
</svg>
